<svg t="1650118670366" class="icon" viewBox="0 0 1024 1024" version="1.1" xmlns="http://www.w3.org/2000/svg" p-id="2724" width="200" height="200"><path d="M975.235687 731.428571h48.764313v48.760701h-48.764313zM975.235687 682.664258h48.764313v48.764313h-48.764313zM975.235687 633.903558h48.764313v48.7607h-48.764313zM975.235687 585.142857h48.764313v48.760701h-48.764313zM975.235687 536.378544h48.764313v48.764313h-48.764313zM975.235687 487.617843h48.764313v48.760701h-48.764313zM975.235687 438.857143h48.764313v48.7607h-48.764313zM975.235687 390.096442h48.764313v48.760701h-48.764313zM926.474986 780.189272h48.760701v48.760701h-48.760701z" fill="#09111F" p-id="2725"></path><path d="M926.474986 731.428571h48.760701v48.760701h-48.760701zM926.474986 682.664258h48.760701v48.764313h-48.760701zM926.474986 633.903558h48.760701v48.7607h-48.760701zM926.474986 585.142857h48.760701v48.760701h-48.760701zM926.474986 536.378544h48.760701v48.764313h-48.760701zM926.474986 487.617843h48.760701v48.760701h-48.760701zM926.474986 438.857143h48.760701v48.7607h-48.760701z" fill="#5C7EBF" p-id="2726"></path><path d="M926.474986 390.096442h48.760701v48.760701h-48.760701z" fill="#FFFFFF" p-id="2727"></path><path d="M926.474986 341.332129h48.760701v48.764313h-48.760701zM926.474986 292.571429h48.760701v48.7607h-48.760701zM877.714286 828.949973h48.7607v48.764313H877.714286z" fill="#09111F" p-id="2728"></path><path d="M877.714286 780.189272h48.7607v48.760701H877.714286zM877.714286 731.428571h48.7607v48.760701H877.714286z" fill="#454853" p-id="2729"></path><path d="M877.714286 682.664258h48.7607v48.764313H877.714286zM877.714286 633.903558h48.7607v48.7607H877.714286z" fill="#5C7EBF" p-id="2730"></path><path d="M877.714286 585.142857h48.7607v48.760701H877.714286zM877.714286 536.378544h48.7607v48.764313H877.714286zM877.714286 487.617843h48.7607v48.760701H877.714286z" fill="#BFC4D9" p-id="2731"></path><path d="M877.714286 438.857143h48.7607v48.7607H877.714286z" fill="#939299" p-id="2732"></path><path d="M877.714286 390.096442h48.7607v48.760701H877.714286z" fill="#BFC4D9" p-id="2733"></path><path d="M877.714286 341.332129h48.7607v48.764313H877.714286zM877.714286 292.571429h48.7607v48.7607H877.714286z" fill="#454853" p-id="2734"></path><path d="M877.714286 243.810728h48.7607V292.571429H877.714286zM877.714286 195.046415h48.7607v48.764313H877.714286zM828.949973 780.189272h48.764313v48.760701h-48.764313z" fill="#09111F" p-id="2735"></path><path d="M828.949973 731.428571h48.764313v48.760701h-48.764313z" fill="#454853" p-id="2736"></path><path d="M828.949973 682.664258h48.764313v48.764313h-48.764313zM828.949973 633.903558h48.764313v48.7607h-48.764313zM828.949973 585.142857h48.764313v48.760701h-48.764313zM828.949973 536.378544h48.764313v48.764313h-48.764313z" fill="#BFC4D9" p-id="2737"></path><path d="M828.949973 487.617843h48.764313v48.760701h-48.764313z" fill="#939299" p-id="2738"></path><path d="M828.949973 438.857143h48.764313v48.7607h-48.764313z" fill="#0974EB" p-id="2739"></path><path d="M828.949973 390.096442h48.764313v48.760701h-48.764313z" fill="#939299" p-id="2740"></path><path d="M828.949973 341.332129h48.764313v48.764313h-48.764313z" fill="#BFC4D9" p-id="2741"></path><path d="M828.949973 292.571429h48.764313v48.7607h-48.764313z" fill="#454853" p-id="2742"></path><path d="M828.949973 243.810728h48.764313V292.571429h-48.764313zM828.949973 195.046415h48.764313v48.764313h-48.764313zM780.189272 780.189272h48.760701v48.760701h-48.760701z" fill="#09111F" p-id="2743"></path><path d="M780.189272 731.428571h48.760701v48.760701h-48.760701z" fill="#454853" p-id="2744"></path><path d="M780.189272 682.664258h48.760701v48.764313h-48.760701z" fill="#BFC4D9" p-id="2745"></path><path d="M780.189272 633.903558h48.760701v48.7607h-48.760701z" fill="#FFFFFF" p-id="2746"></path><path d="M780.189272 585.142857h48.760701v48.760701h-48.760701z" fill="#BFC4D9" p-id="2747"></path><path d="M780.189272 536.378544h48.760701v48.764313h-48.760701z" fill="#939299" p-id="2748"></path><path d="M780.189272 487.617843h48.760701v48.760701h-48.760701z" fill="#D81515" p-id="2749"></path><path d="M780.189272 438.857143h48.760701v48.7607h-48.760701z" fill="#0974EB" p-id="2750"></path><path d="M780.189272 390.096442h48.760701v48.760701h-48.760701z" fill="#EAB603" p-id="2751"></path><path d="M780.189272 341.332129h48.760701v48.764313h-48.760701z" fill="#939299" p-id="2752"></path><path d="M780.189272 292.571429h48.760701v48.7607h-48.760701zM780.189272 243.810728h48.760701V292.571429h-48.760701z" fill="#454853" p-id="2753"></path><path d="M780.189272 195.046415h48.760701v48.764313h-48.760701zM731.428571 731.428571h48.760701v48.760701h-48.760701z" fill="#09111F" p-id="2754"></path><path d="M731.428571 682.664258h48.760701v48.764313h-48.760701z" fill="#454853" p-id="2755"></path><path d="M731.428571 633.903558h48.760701v48.7607h-48.760701z" fill="#BFC4D9" p-id="2756"></path><path d="M731.428571 585.142857h48.760701v48.760701h-48.760701z" fill="#FFFFFF" p-id="2757"></path><path d="M731.428571 536.378544h48.760701v48.764313h-48.760701z" fill="#939299" p-id="2758"></path><path d="M731.428571 487.617843h48.760701v48.760701h-48.760701z" fill="#D81515" p-id="2759"></path><path d="M731.428571 438.857143h48.760701v48.7607h-48.760701z" fill="#24BF1D" p-id="2760"></path><path d="M731.428571 390.096442h48.760701v48.760701h-48.760701z" fill="#EAB603" p-id="2761"></path><path d="M731.428571 341.332129h48.760701v48.764313h-48.760701z" fill="#939299" p-id="2762"></path><path d="M731.428571 292.571429h48.760701v48.7607h-48.760701zM731.428571 243.810728h48.760701V292.571429h-48.760701z" fill="#454853" p-id="2763"></path><path d="M731.428571 195.046415h48.760701v48.764313h-48.760701zM682.664258 731.428571h48.764313v48.760701h-48.764313zM682.664258 682.664258h48.764313v48.764313h-48.764313z" fill="#09111F" p-id="2764"></path><path d="M682.664258 633.903558h48.764313v48.7607h-48.764313zM682.664258 585.142857h48.764313v48.760701h-48.764313zM682.664258 536.378544h48.764313v48.764313h-48.764313z" fill="#BFC4D9" p-id="2765"></path><path d="M682.664258 487.617843h48.764313v48.760701h-48.764313z" fill="#939299" p-id="2766"></path><path d="M682.664258 438.857143h48.764313v48.7607h-48.764313z" fill="#24BF1D" p-id="2767"></path><path d="M682.664258 390.096442h48.764313v48.760701h-48.764313z" fill="#939299" p-id="2768"></path><path d="M682.664258 341.332129h48.764313v48.764313h-48.764313z" fill="#BFC4D9" p-id="2769"></path><path d="M682.664258 292.571429h48.764313v48.7607h-48.764313zM682.664258 243.810728h48.764313V292.571429h-48.764313z" fill="#454853" p-id="2770"></path><path d="M682.664258 195.046415h48.764313v48.764313h-48.764313zM633.903558 780.189272h48.7607v48.760701h-48.7607zM633.903558 731.428571h48.7607v48.760701h-48.7607z" fill="#09111F" p-id="2771"></path><path d="M633.903558 682.664258h48.7607v48.764313h-48.7607z" fill="#BFC4D9" p-id="2772"></path><path d="M633.903558 633.903558h48.7607v48.7607h-48.7607zM633.903558 585.142857h48.7607v48.760701h-48.7607z" fill="#567097" p-id="2773"></path><path d="M633.903558 536.378544h48.7607v48.764313h-48.7607zM633.903558 487.617843h48.7607v48.760701h-48.7607z" fill="#BFC4D9" p-id="2774"></path><path d="M633.903558 438.857143h48.7607v48.7607h-48.7607z" fill="#939299" p-id="2775"></path><path d="M633.903558 390.096442h48.7607v48.760701h-48.7607zM633.903558 341.332129h48.7607v48.764313h-48.7607z" fill="#BFC4D9" p-id="2776"></path><path d="M633.903558 292.571429h48.7607v48.7607h-48.7607z" fill="#454853" p-id="2777"></path><path d="M633.903558 243.810728h48.7607V292.571429h-48.7607zM585.142857 731.428571h48.760701v48.760701H585.142857zM585.142857 682.664258h48.760701v48.764313H585.142857z" fill="#09111F" p-id="2778"></path><path d="M585.142857 633.903558h48.760701v48.7607H585.142857zM585.142857 585.142857h48.760701v48.760701H585.142857z" fill="#567097" p-id="2779"></path><path d="M585.142857 536.378544h48.760701v48.764313H585.142857z" fill="#BFC4D9" p-id="2780"></path><path d="M585.142857 487.617843h48.760701v48.760701H585.142857z" fill="#232B38" p-id="2781"></path><path d="M585.142857 438.857143h48.760701v48.7607H585.142857z" fill="#BFC4D9" p-id="2782"></path><path d="M585.142857 390.096442h48.760701v48.760701H585.142857z" fill="#567097" p-id="2783"></path><path d="M585.142857 341.332129h48.760701v48.764313H585.142857z" fill="#BFC4D9" p-id="2784"></path><path d="M585.142857 292.571429h48.760701v48.7607H585.142857zM536.378544 682.664258h48.764313v48.764313h-48.764313z" fill="#09111F" p-id="2785"></path><path d="M536.378544 633.903558h48.764313v48.7607h-48.764313zM536.378544 585.142857h48.764313v48.760701h-48.764313zM536.378544 536.378544h48.764313v48.764313h-48.764313z" fill="#BFC4D9" p-id="2786"></path><path d="M536.378544 487.617843h48.764313v48.760701h-48.764313z" fill="#232B38" p-id="2787"></path><path d="M536.378544 438.857143h48.764313v48.7607h-48.764313z" fill="#BFC4D9" p-id="2788"></path><path d="M536.378544 390.096442h48.764313v48.760701h-48.764313z" fill="#567097" p-id="2789"></path><path d="M536.378544 341.332129h48.764313v48.764313h-48.764313z" fill="#BFC4D9" p-id="2790"></path><path d="M536.378544 292.571429h48.764313v48.7607h-48.764313zM487.617843 682.664258h48.760701v48.764313h-48.760701z" fill="#09111F" p-id="2791"></path><path d="M487.617843 633.903558h48.760701v48.7607h-48.760701z" fill="#BFC4D9" p-id="2792"></path><path d="M487.617843 585.142857h48.760701v48.760701h-48.760701z" fill="#939299" p-id="2793"></path><path d="M487.617843 536.378544h48.760701v48.764313h-48.760701zM487.617843 487.617843h48.760701v48.760701h-48.760701zM487.617843 438.857143h48.760701v48.7607h-48.760701zM487.617843 390.096442h48.760701v48.760701h-48.760701zM487.617843 341.332129h48.760701v48.764313h-48.760701z" fill="#BFC4D9" p-id="2794"></path><path d="M487.617843 292.571429h48.760701v48.7607h-48.760701zM438.857143 682.664258h48.7607v48.764313h-48.7607z" fill="#09111F" p-id="2795"></path><path d="M438.857143 633.903558h48.7607v48.7607h-48.7607zM438.857143 585.142857h48.7607v48.760701h-48.7607zM438.857143 536.378544h48.7607v48.764313h-48.7607z" fill="#BFC4D9" p-id="2796"></path><path d="M438.857143 487.617843h48.7607v48.760701h-48.7607z" fill="#232B38" p-id="2797"></path><path d="M438.857143 438.857143h48.7607v48.7607h-48.7607z" fill="#BFC4D9" p-id="2798"></path><path d="M438.857143 390.096442h48.7607v48.760701h-48.7607z" fill="#567097" p-id="2799"></path><path d="M438.857143 341.332129h48.7607v48.764313h-48.7607z" fill="#BFC4D9" p-id="2800"></path><path d="M438.857143 292.571429h48.7607v48.7607h-48.7607zM390.096442 731.428571h48.760701v48.760701h-48.760701zM390.096442 682.664258h48.760701v48.764313h-48.760701z" fill="#09111F" p-id="2801"></path><path d="M390.096442 633.903558h48.760701v48.7607h-48.760701zM390.096442 585.142857h48.760701v48.760701h-48.760701zM390.096442 536.378544h48.760701v48.764313h-48.760701z" fill="#BFC4D9" p-id="2802"></path><path d="M390.096442 487.617843h48.760701v48.760701h-48.760701z" fill="#232B38" p-id="2803"></path><path d="M390.096442 438.857143h48.760701v48.7607h-48.760701z" fill="#BFC4D9" p-id="2804"></path><path d="M390.096442 390.096442h48.760701v48.760701h-48.760701z" fill="#567097" p-id="2805"></path><path d="M390.096442 341.332129h48.760701v48.764313h-48.760701z" fill="#BFC4D9" p-id="2806"></path><path d="M390.096442 292.571429h48.760701v48.7607h-48.760701zM341.332129 780.189272h48.764313v48.760701H341.332129zM341.332129 731.428571h48.764313v48.760701H341.332129z" fill="#09111F" p-id="2807"></path><path d="M341.332129 682.664258h48.764313v48.764313H341.332129z" fill="#BFC4D9" p-id="2808"></path><path d="M341.332129 633.903558h48.764313v48.7607H341.332129zM341.332129 585.142857h48.764313v48.760701H341.332129z" fill="#567097" p-id="2809"></path><path d="M341.332129 536.378544h48.764313v48.764313H341.332129zM341.332129 487.617843h48.764313v48.760701H341.332129z" fill="#BFC4D9" p-id="2810"></path><path d="M341.332129 438.857143h48.764313v48.7607H341.332129z" fill="#939299" p-id="2811"></path><path d="M341.332129 390.096442h48.764313v48.760701H341.332129zM341.332129 341.332129h48.764313v48.764313H341.332129z" fill="#BFC4D9" p-id="2812"></path><path d="M341.332129 292.571429h48.764313v48.7607H341.332129z" fill="#454853" p-id="2813"></path><path d="M341.332129 243.810728h48.764313V292.571429H341.332129zM292.571429 731.428571h48.7607v48.760701H292.571429zM292.571429 682.664258h48.7607v48.764313H292.571429z" fill="#09111F" p-id="2814"></path><path d="M292.571429 633.903558h48.7607v48.7607H292.571429zM292.571429 585.142857h48.7607v48.760701H292.571429z" fill="#567097" p-id="2815"></path><path d="M292.571429 536.378544h48.7607v48.764313H292.571429z" fill="#BFC4D9" p-id="2816"></path><path d="M292.571429 487.617843h48.7607v48.760701H292.571429z" fill="#939299" p-id="2817"></path><path d="M292.571429 438.857143h48.7607v48.7607H292.571429z" fill="#232B38" p-id="2818"></path><path d="M292.571429 390.096442h48.7607v48.760701H292.571429z" fill="#939299" p-id="2819"></path><path d="M292.571429 341.332129h48.7607v48.764313H292.571429z" fill="#BFC4D9" p-id="2820"></path><path d="M292.571429 292.571429h48.7607v48.7607H292.571429zM292.571429 243.810728h48.7607V292.571429H292.571429z" fill="#454853" p-id="2821"></path><path d="M292.571429 195.046415h48.7607v48.764313H292.571429zM243.810728 731.428571H292.571429v48.760701H243.810728z" fill="#09111F" p-id="2822"></path><path d="M243.810728 682.664258H292.571429v48.764313H243.810728z" fill="#454853" p-id="2823"></path><path d="M243.810728 633.903558H292.571429v48.7607H243.810728zM243.810728 585.142857H292.571429v48.760701H243.810728z" fill="#BFC4D9" p-id="2824"></path><path d="M243.810728 536.378544H292.571429v48.764313H243.810728z" fill="#939299" p-id="2825"></path><path d="M243.810728 487.617843H292.571429v48.760701H243.810728zM243.810728 438.857143H292.571429v48.7607H243.810728zM243.810728 390.096442H292.571429v48.760701H243.810728z" fill="#232B38" p-id="2826"></path><path d="M243.810728 341.332129H292.571429v48.764313H243.810728z" fill="#939299" p-id="2827"></path><path d="M243.810728 292.571429H292.571429v48.7607H243.810728zM243.810728 243.810728H292.571429V292.571429H243.810728z" fill="#454853" p-id="2828"></path><path d="M243.810728 195.046415H292.571429v48.764313H243.810728zM195.046415 780.189272h48.764313v48.760701H195.046415z" fill="#09111F" p-id="2829"></path><path d="M195.046415 731.428571h48.764313v48.760701H195.046415z" fill="#454853" p-id="2830"></path><path d="M195.046415 682.664258h48.764313v48.764313H195.046415z" fill="#BFC4D9" p-id="2831"></path><path d="M195.046415 633.903558h48.764313v48.7607H195.046415z" fill="#FFFFFF" p-id="2832"></path><path d="M195.046415 585.142857h48.764313v48.760701H195.046415z" fill="#BFC4D9" p-id="2833"></path><path d="M195.046415 536.378544h48.764313v48.764313H195.046415z" fill="#939299" p-id="2834"></path><path d="M195.046415 487.617843h48.764313v48.760701H195.046415zM195.046415 438.857143h48.764313v48.7607H195.046415zM195.046415 390.096442h48.764313v48.760701H195.046415z" fill="#232B38" p-id="2835"></path><path d="M195.046415 341.332129h48.764313v48.764313H195.046415z" fill="#939299" p-id="2836"></path><path d="M195.046415 292.571429h48.764313v48.7607H195.046415zM195.046415 243.810728h48.764313V292.571429H195.046415z" fill="#454853" p-id="2837"></path><path d="M195.046415 195.046415h48.764313v48.764313H195.046415zM146.285714 828.949973h48.760701v48.764313H146.285714z" fill="#09111F" p-id="2838"></path><path d="M146.285714 780.189272h48.760701v48.760701H146.285714zM146.285714 731.428571h48.760701v48.760701H146.285714z" fill="#454853" p-id="2839"></path><path d="M146.285714 682.664258h48.760701v48.764313H146.285714zM146.285714 633.903558h48.760701v48.7607H146.285714z" fill="#BFC4D9" p-id="2840"></path><path d="M146.285714 585.142857h48.760701v48.760701H146.285714z" fill="#FFFFFF" p-id="2841"></path><path d="M146.285714 536.378544h48.760701v48.764313H146.285714z" fill="#BFC4D9" p-id="2842"></path><path d="M146.285714 487.617843h48.760701v48.760701H146.285714z" fill="#939299" p-id="2843"></path><path d="M146.285714 438.857143h48.760701v48.7607H146.285714z" fill="#232B38" p-id="2844"></path><path d="M146.285714 390.096442h48.760701v48.760701H146.285714z" fill="#939299" p-id="2845"></path><path d="M146.285714 341.332129h48.760701v48.764313H146.285714zM146.285714 292.571429h48.760701v48.7607H146.285714z" fill="#454853" p-id="2846"></path><path d="M146.285714 243.810728h48.760701V292.571429H146.285714zM146.285714 195.046415h48.760701v48.764313H146.285714zM97.525014 780.189272h48.7607v48.760701H97.525014z" fill="#09111F" p-id="2847"></path><path d="M97.525014 731.428571h48.7607v48.760701H97.525014z" fill="#454853" p-id="2848"></path><path d="M97.525014 682.664258h48.7607v48.764313H97.525014zM97.525014 633.903558h48.7607v48.7607H97.525014z" fill="#5C7EBF" p-id="2849"></path><path d="M97.525014 585.142857h48.7607v48.760701H97.525014z" fill="#454853" p-id="2850"></path><path d="M97.525014 536.378544h48.7607v48.764313H97.525014z" fill="#FFFFFF" p-id="2851"></path><path d="M97.525014 487.617843h48.7607v48.760701H97.525014z" fill="#BFC4D9" p-id="2852"></path><path d="M97.525014 438.857143h48.7607v48.7607H97.525014z" fill="#939299" p-id="2853"></path><path d="M97.525014 390.096442h48.7607v48.760701H97.525014zM97.525014 341.332129h48.7607v48.764313H97.525014zM97.525014 292.571429h48.7607v48.7607H97.525014z" fill="#454853" p-id="2854"></path><path d="M97.525014 243.810728h48.7607V292.571429H97.525014zM48.760701 780.189272h48.764313v48.760701H48.760701z" fill="#09111F" p-id="2855"></path><path d="M48.760701 731.428571h48.764313v48.760701H48.760701zM48.760701 682.664258h48.764313v48.764313H48.760701zM48.760701 633.903558h48.764313v48.7607H48.760701zM48.760701 585.142857h48.764313v48.760701H48.760701zM48.760701 536.378544h48.764313v48.764313H48.760701zM48.760701 487.617843h48.764313v48.760701H48.760701zM48.760701 438.857143h48.764313v48.7607H48.760701z" fill="#5C7EBF" p-id="2856"></path><path d="M48.760701 390.096442h48.764313v48.760701H48.760701z" fill="#FFFFFF" p-id="2857"></path><path d="M48.760701 341.332129h48.764313v48.764313H48.760701zM48.760701 292.571429h48.764313v48.7607H48.760701zM0 731.428571h48.760701v48.760701H0zM0 682.664258h48.760701v48.764313H0zM0 633.903558h48.760701v48.7607H0zM0 585.142857h48.760701v48.760701H0zM0 536.378544h48.760701v48.764313H0zM0 487.617843h48.760701v48.760701H0zM0 438.857143h48.760701v48.7607H0zM0 390.096442h48.760701v48.760701H0z" fill="#09111F" p-id="2858"></path></svg>