<svg xmlns="http://www.w3.org/2000/svg" width="200" height="200" class="icon" p-id="8810" t="1650118829352" version="1.1" viewBox="0 0 1024 1024"><path d="M975.235687 438.857143h48.764313v48.7607h-48.764313zM975.235687 390.096442h48.764313v48.760701h-48.764313zM975.235687 341.332129h48.764313v48.764313h-48.764313zM975.235687 292.571429h48.764313v48.7607h-48.764313zM975.235687 243.810728h48.764313V292.571429h-48.764313zM926.474986 536.378544h48.760701v48.764313h-48.760701zM926.474986 487.617843h48.760701v48.760701h-48.760701z" p-id="8811"/><path fill="#E41C00" d="M926.474986 438.857143h48.760701v48.7607h-48.760701zM926.474986 390.096442h48.760701v48.760701h-48.760701zM926.474986 341.332129h48.760701v48.764313h-48.760701zM926.474986 292.571429h48.760701v48.7607h-48.760701zM926.474986 243.810728h48.760701V292.571429h-48.760701z" p-id="8812"/><path d="M926.474986 195.046415h48.760701v48.764313h-48.760701zM877.714286 633.903558h48.7607v48.7607H877.714286zM877.714286 585.142857h48.7607v48.760701H877.714286z" p-id="8813"/><path fill="#E41C00" d="M877.714286 536.378544h48.7607v48.764313H877.714286zM877.714286 487.617843h48.7607v48.760701H877.714286z" p-id="8814"/><path fill="#BD0502" d="M877.714286 438.857143h48.7607v48.7607H877.714286zM877.714286 390.096442h48.7607v48.760701H877.714286z" p-id="8815"/><path fill="#E41C00" d="M877.714286 341.332129h48.7607v48.764313H877.714286zM877.714286 292.571429h48.7607v48.7607H877.714286z" p-id="8816"/><path fill="#FFF" d="M877.714286 243.810728h48.7607V292.571429H877.714286z" p-id="8817"/><path fill="#E41C00" d="M877.714286 195.046415h48.7607v48.764313H877.714286z" p-id="8818"/><path d="M877.714286 146.285714h48.7607v48.760701H877.714286zM828.949973 682.664258h48.764313v48.764313h-48.764313z" p-id="8819"/><path fill="#E41C00" d="M828.949973 633.903558h48.764313v48.7607h-48.764313zM828.949973 585.142857h48.764313v48.760701h-48.764313z" p-id="8820"/><path fill="#BD0502" d="M828.949973 536.378544h48.764313v48.764313h-48.764313z" p-id="8821"/><path fill="#900503" d="M828.949973 487.617843h48.764313v48.760701h-48.764313z" p-id="8822"/><path fill="#BD0502" d="M828.949973 438.857143h48.764313v48.7607h-48.764313zM828.949973 390.096442h48.764313v48.760701h-48.764313z" p-id="8823"/><path fill="#E41C00" d="M828.949973 341.332129h48.764313v48.764313h-48.764313zM828.949973 292.571429h48.764313v48.7607h-48.764313zM828.949973 243.810728h48.764313V292.571429h-48.764313zM828.949973 195.046415h48.764313v48.764313h-48.764313zM828.949973 146.285714h48.764313v48.760701h-48.764313z" p-id="8824"/><path d="M828.949973 97.525014h48.764313v48.7607h-48.764313zM780.189272 731.428571h48.760701v48.760701h-48.760701z" p-id="8825"/><path fill="#E41C00" d="M780.189272 682.664258h48.760701v48.764313h-48.760701z" p-id="8826"/><path fill="#BD0502" d="M780.189272 633.903558h48.760701v48.7607h-48.760701zM780.189272 585.142857h48.760701v48.760701h-48.760701z" p-id="8827"/><path fill="#900503" d="M780.189272 536.378544h48.760701v48.764313h-48.760701zM780.189272 487.617843h48.760701v48.760701h-48.760701zM780.189272 438.857143h48.760701v48.7607h-48.760701zM780.189272 390.096442h48.760701v48.760701h-48.760701zM780.189272 341.332129h48.760701v48.764313h-48.760701z" p-id="8828"/><path fill="#E41C00" d="M780.189272 292.571429h48.760701v48.7607h-48.760701zM780.189272 243.810728h48.760701V292.571429h-48.760701z" p-id="8829"/><path fill="#BD0502" d="M780.189272 195.046415h48.760701v48.764313h-48.760701z" p-id="8830"/><path fill="#E41C00" d="M780.189272 146.285714h48.760701v48.760701h-48.760701z" p-id="8831"/><path d="M780.189272 97.525014h48.760701v48.7607h-48.760701zM731.428571 780.189272h48.760701v48.760701h-48.760701z" p-id="8832"/><path fill="#E41C00" d="M731.428571 731.428571h48.760701v48.760701h-48.760701z" p-id="8833"/><path fill="#BD0502" d="M731.428571 682.664258h48.760701v48.764313h-48.760701zM731.428571 633.903558h48.760701v48.7607h-48.760701z" p-id="8834"/><path fill="#900503" d="M731.428571 585.142857h48.760701v48.760701h-48.760701z" p-id="8835"/><path fill="#FFF" d="M731.428571 536.378544h48.760701v48.764313h-48.760701z" p-id="8836"/><path fill="#900503" d="M731.428571 487.617843h48.760701v48.760701h-48.760701zM731.428571 438.857143h48.760701v48.7607h-48.760701z" p-id="8837"/><path fill="#BD0502" d="M731.428571 390.096442h48.760701v48.760701h-48.760701z" p-id="8838"/><path fill="#E41C00" d="M731.428571 341.332129h48.760701v48.764313h-48.760701z" p-id="8839"/><path fill="#900503" d="M731.428571 292.571429h48.760701v48.7607h-48.760701z" p-id="8840"/><path fill="#BD0502" d="M731.428571 243.810728h48.760701V292.571429h-48.760701zM731.428571 195.046415h48.760701v48.764313h-48.760701z" p-id="8841"/><path fill="#E41C00" d="M731.428571 146.285714h48.760701v48.760701h-48.760701z" p-id="8842"/><path d="M731.428571 97.525014h48.760701v48.7607h-48.760701zM682.664258 780.189272h48.764313v48.760701h-48.764313z" p-id="8843"/><path fill="#E41C00" d="M682.664258 731.428571h48.764313v48.760701h-48.764313z" p-id="8844"/><path fill="#BD0502" d="M682.664258 682.664258h48.764313v48.764313h-48.764313z" p-id="8845"/><path fill="#900503" d="M682.664258 633.903558h48.764313v48.7607h-48.764313zM682.664258 585.142857h48.764313v48.760701h-48.764313zM682.664258 536.378544h48.764313v48.764313h-48.764313zM682.664258 487.617843h48.764313v48.760701h-48.764313zM682.664258 438.857143h48.764313v48.7607h-48.764313zM682.664258 390.096442h48.764313v48.760701h-48.764313zM682.664258 341.332129h48.764313v48.764313h-48.764313zM682.664258 292.571429h48.764313v48.7607h-48.764313z" p-id="8846"/><path fill="#BD0502" d="M682.664258 243.810728h48.764313V292.571429h-48.764313zM682.664258 195.046415h48.764313v48.764313h-48.764313z" p-id="8847"/><path fill="#E41C00" d="M682.664258 146.285714h48.764313v48.760701h-48.764313z" p-id="8848"/><path d="M682.664258 97.525014h48.764313v48.7607h-48.764313zM633.903558 828.949973h48.7607v48.764313h-48.7607z" p-id="8849"/><path fill="#E41C00" d="M633.903558 780.189272h48.7607v48.760701h-48.7607z" p-id="8850"/><path fill="#BD0502" d="M633.903558 731.428571h48.7607v48.760701h-48.7607z" p-id="8851"/><path fill="#900503" d="M633.903558 682.664258h48.7607v48.764313h-48.7607z" p-id="8852"/><path fill="#FFF" d="M633.903558 633.903558h48.7607v48.7607h-48.7607z" p-id="8853"/><path fill="#900503" d="M633.903558 585.142857h48.7607v48.760701h-48.7607zM633.903558 536.378544h48.7607v48.764313h-48.7607zM633.903558 487.617843h48.7607v48.760701h-48.7607zM633.903558 438.857143h48.7607v48.7607h-48.7607zM633.903558 390.096442h48.7607v48.760701h-48.7607zM633.903558 341.332129h48.7607v48.764313h-48.7607zM633.903558 292.571429h48.7607v48.7607h-48.7607z" p-id="8854"/><path fill="#BD0502" d="M633.903558 243.810728h48.7607V292.571429h-48.7607zM633.903558 195.046415h48.7607v48.764313h-48.7607z" p-id="8855"/><path fill="#E41C00" d="M633.903558 146.285714h48.7607v48.760701h-48.7607z" p-id="8856"/><path d="M633.903558 97.525014h48.7607v48.7607h-48.7607zM585.142857 828.949973h48.760701v48.764313H585.142857z" p-id="8857"/><path fill="#E41C00" d="M585.142857 780.189272h48.760701v48.760701H585.142857z" p-id="8858"/><path fill="#900503" d="M585.142857 731.428571h48.760701v48.760701H585.142857zM585.142857 682.664258h48.760701v48.764313H585.142857zM585.142857 633.903558h48.760701v48.7607H585.142857zM585.142857 585.142857h48.760701v48.760701H585.142857zM585.142857 536.378544h48.760701v48.764313H585.142857zM585.142857 487.617843h48.760701v48.760701H585.142857zM585.142857 438.857143h48.760701v48.7607H585.142857zM585.142857 390.096442h48.760701v48.760701H585.142857zM585.142857 341.332129h48.760701v48.764313H585.142857zM585.142857 292.571429h48.760701v48.7607H585.142857z" p-id="8859"/><path fill="#BD0502" d="M585.142857 243.810728h48.760701V292.571429H585.142857zM585.142857 195.046415h48.760701v48.764313H585.142857z" p-id="8860"/><path fill="#E41C00" d="M585.142857 146.285714h48.760701v48.760701H585.142857z" p-id="8861"/><path d="M585.142857 97.525014h48.760701v48.7607H585.142857zM536.378544 877.714286h48.764313v48.7607h-48.764313z" p-id="8862"/><path fill="#E41C00" d="M536.378544 828.949973h48.764313v48.764313h-48.764313z" p-id="8863"/><path fill="#BD0502" d="M536.378544 780.189272h48.764313v48.760701h-48.764313z" p-id="8864"/><path fill="#900503" d="M536.378544 731.428571h48.764313v48.760701h-48.764313zM536.378544 682.664258h48.764313v48.764313h-48.764313z" p-id="8865"/><path fill="#BD0502" d="M536.378544 633.903558h48.764313v48.7607h-48.764313z" p-id="8866"/><path fill="#900503" d="M536.378544 585.142857h48.764313v48.760701h-48.764313z" p-id="8867"/><path fill="#FFF" d="M536.378544 536.378544h48.764313v48.764313h-48.764313z" p-id="8868"/><path fill="#900503" d="M536.378544 487.617843h48.764313v48.760701h-48.764313zM536.378544 438.857143h48.764313v48.7607h-48.764313zM536.378544 390.096442h48.764313v48.760701h-48.764313zM536.378544 341.332129h48.764313v48.764313h-48.764313zM536.378544 292.571429h48.764313v48.7607h-48.764313z" p-id="8869"/><path fill="#BD0502" d="M536.378544 243.810728h48.764313V292.571429h-48.764313z" p-id="8870"/><path fill="#E41C00" d="M536.378544 195.046415h48.764313v48.764313h-48.764313z" p-id="8871"/><path d="M536.378544 146.285714h48.764313v48.760701h-48.764313zM487.617843 926.474986h48.760701v48.760701h-48.760701z" p-id="8872"/><path fill="#E41C00" d="M487.617843 877.714286h48.760701v48.7607h-48.760701z" p-id="8873"/><path fill="#BD0502" d="M487.617843 828.949973h48.760701v48.764313h-48.760701zM487.617843 780.189272h48.760701v48.760701h-48.760701z" p-id="8874"/><path fill="#900503" d="M487.617843 731.428571h48.760701v48.760701h-48.760701z" p-id="8875"/><path fill="#BD0502" d="M487.617843 682.664258h48.760701v48.764313h-48.760701z" p-id="8876"/><path fill="#900503" d="M487.617843 633.903558h48.760701v48.7607h-48.760701zM487.617843 585.142857h48.760701v48.760701h-48.760701zM487.617843 536.378544h48.760701v48.764313h-48.760701zM487.617843 487.617843h48.760701v48.760701h-48.760701zM487.617843 438.857143h48.760701v48.7607h-48.760701zM487.617843 390.096442h48.760701v48.760701h-48.760701zM487.617843 341.332129h48.760701v48.764313h-48.760701z" p-id="8877"/><path fill="#BE0602" d="M487.617843 292.571429h48.760701v48.7607h-48.760701z" p-id="8878"/><path fill="#E41C00" d="M487.617843 243.810728h48.760701V292.571429h-48.760701z" p-id="8879"/><path d="M487.617843 195.046415h48.760701v48.764313h-48.760701zM438.857143 877.714286h48.7607v48.7607h-48.7607z" p-id="8880"/><path fill="#E41C00" d="M438.857143 828.949973h48.7607v48.764313h-48.7607z" p-id="8881"/><path fill="#BD0502" d="M438.857143 780.189272h48.7607v48.760701h-48.7607z" p-id="8882"/><path fill="#900503" d="M438.857143 731.428571h48.7607v48.760701h-48.7607zM438.857143 682.664258h48.7607v48.764313h-48.7607zM438.857143 633.903558h48.7607v48.7607h-48.7607zM438.857143 585.142857h48.7607v48.760701h-48.7607z" p-id="8883"/><path fill="#BD0502" d="M438.857143 536.378544h48.7607v48.764313h-48.7607z" p-id="8884"/><path fill="#900503" d="M438.857143 487.617843h48.7607v48.760701h-48.7607zM438.857143 438.857143h48.7607v48.7607h-48.7607zM438.857143 390.096442h48.7607v48.760701h-48.7607zM438.857143 341.332129h48.7607v48.764313h-48.7607zM438.857143 292.571429h48.7607v48.7607h-48.7607z" p-id="8885"/><path fill="#BE0602" d="M438.857143 243.810728h48.7607V292.571429h-48.7607z" p-id="8886"/><path fill="#E41C00" d="M438.857143 195.046415h48.7607v48.764313h-48.7607z" p-id="8887"/><path d="M438.857143 146.285714h48.7607v48.760701h-48.7607zM390.096442 828.949973h48.760701v48.764313h-48.760701z" p-id="8888"/><path fill="#E41C00" d="M390.096442 780.189272h48.760701v48.760701h-48.760701z" p-id="8889"/><path fill="#BD0502" d="M390.096442 731.428571h48.760701v48.760701h-48.760701z" p-id="8890"/><path fill="#900503" d="M390.096442 682.664258h48.760701v48.764313h-48.760701zM390.096442 633.903558h48.760701v48.7607h-48.760701zM390.096442 585.142857h48.760701v48.760701h-48.760701zM390.096442 536.378544h48.760701v48.764313h-48.760701zM390.096442 487.617843h48.760701v48.760701h-48.760701z" p-id="8891"/><path fill="#BD0502" d="M390.096442 438.857143h48.760701v48.7607h-48.760701z" p-id="8892"/><path fill="#E41C00" d="M390.096442 390.096442h48.760701v48.760701h-48.760701zM390.096442 341.332129h48.760701v48.764313h-48.760701z" p-id="8893"/><path fill="#900503" d="M390.096442 292.571429h48.760701v48.7607h-48.760701z" p-id="8894"/><path fill="#BE0602" d="M390.096442 243.810728h48.760701V292.571429h-48.760701zM390.096442 195.046415h48.760701v48.764313h-48.760701z" p-id="8895"/><path fill="#E41C00" d="M390.096442 146.285714h48.760701v48.760701h-48.760701z" p-id="8896"/><path d="M390.096442 97.525014h48.760701v48.7607h-48.760701zM341.332129 828.949973h48.764313v48.764313H341.332129z" p-id="8897"/><path fill="#E41C00" d="M341.332129 780.189272h48.764313v48.760701H341.332129z" p-id="8898"/><path fill="#BD0502" d="M341.332129 731.428571h48.764313v48.760701H341.332129z" p-id="8899"/><path fill="#900503" d="M341.332129 682.664258h48.764313v48.764313H341.332129zM341.332129 633.903558h48.764313v48.7607H341.332129zM341.332129 585.142857h48.764313v48.760701H341.332129z" p-id="8900"/><path fill="#BD0502" d="M341.332129 536.378544h48.764313v48.764313H341.332129z" p-id="8901"/><path fill="#900503" d="M341.332129 487.617843h48.764313v48.760701H341.332129zM341.332129 438.857143h48.764313v48.7607H341.332129zM341.332129 390.096442h48.764313v48.760701H341.332129zM341.332129 341.332129h48.764313v48.764313H341.332129zM341.332129 292.571429h48.764313v48.7607H341.332129z" p-id="8902"/><path fill="#BD0502" d="M341.332129 243.810728h48.764313V292.571429H341.332129z" p-id="8903"/><path fill="#BE0602" d="M341.332129 195.046415h48.764313v48.764313H341.332129z" p-id="8904"/><path fill="#E41C00" d="M341.332129 146.285714h48.764313v48.760701H341.332129z" p-id="8905"/><path d="M341.332129 97.525014h48.764313v48.7607H341.332129zM292.571429 780.189272h48.7607v48.760701H292.571429z" p-id="8906"/><path fill="#E41C00" d="M292.571429 731.428571h48.7607v48.760701H292.571429z" p-id="8907"/><path fill="#BD0502" d="M292.571429 682.664258h48.7607v48.764313H292.571429z" p-id="8908"/><path fill="#FFF" d="M292.571429 633.903558h48.7607v48.7607H292.571429z" p-id="8909"/><path fill="#900503" d="M292.571429 585.142857h48.7607v48.760701H292.571429z" p-id="8910"/><path fill="#BD0502" d="M292.571429 536.378544h48.7607v48.764313H292.571429z" p-id="8911"/><path fill="#900503" d="M292.571429 487.617843h48.7607v48.760701H292.571429zM292.571429 438.857143h48.7607v48.7607H292.571429z" p-id="8912"/><path fill="#BD0502" d="M292.571429 390.096442h48.7607v48.760701H292.571429z" p-id="8913"/><path fill="#E41C00" d="M292.571429 341.332129h48.7607v48.764313H292.571429z" p-id="8914"/><path fill="#900503" d="M292.571429 292.571429h48.7607v48.7607H292.571429z" p-id="8915"/><path fill="#BD0502" d="M292.571429 243.810728h48.7607V292.571429H292.571429z" p-id="8916"/><path fill="#BE0602" d="M292.571429 195.046415h48.7607v48.764313H292.571429z" p-id="8917"/><path fill="#E41C00" d="M292.571429 146.285714h48.7607v48.760701H292.571429z" p-id="8918"/><path d="M292.571429 97.525014h48.7607v48.7607H292.571429zM243.810728 780.189272H292.571429v48.760701H243.810728z" p-id="8919"/><path fill="#E41C00" d="M243.810728 731.428571H292.571429v48.760701H243.810728z" p-id="8920"/><path fill="#BD0502" d="M243.810728 682.664258H292.571429v48.764313H243.810728z" p-id="8921"/><path fill="#900503" d="M243.810728 633.903558H292.571429v48.7607H243.810728zM243.810728 585.142857H292.571429v48.760701H243.810728zM243.810728 536.378544H292.571429v48.764313H243.810728z" p-id="8922"/><path fill="#BD0502" d="M243.810728 487.617843H292.571429v48.760701H243.810728z" p-id="8923"/><path fill="#900503" d="M243.810728 438.857143H292.571429v48.7607H243.810728zM243.810728 390.096442H292.571429v48.760701H243.810728z" p-id="8924"/><path fill="#E41C00" d="M243.810728 341.332129H292.571429v48.764313H243.810728z" p-id="8925"/><path fill="#900503" d="M243.810728 292.571429H292.571429v48.7607H243.810728z" p-id="8926"/><path fill="#BD0502" d="M243.810728 243.810728H292.571429V292.571429H243.810728z" p-id="8927"/><path fill="#BE0602" d="M243.810728 195.046415H292.571429v48.764313H243.810728z" p-id="8928"/><path fill="#E41C00" d="M243.810728 146.285714H292.571429v48.760701H243.810728z" p-id="8929"/><path d="M243.810728 97.525014H292.571429v48.7607H243.810728zM195.046415 731.428571h48.764313v48.760701H195.046415z" p-id="8930"/><path fill="#E41C00" d="M195.046415 682.664258h48.764313v48.764313H195.046415z" p-id="8931"/><path fill="#BD0502" d="M195.046415 633.903558h48.764313v48.7607H195.046415zM195.046415 585.142857h48.764313v48.760701H195.046415z" p-id="8932"/><path fill="#900503" d="M195.046415 536.378544h48.764313v48.764313H195.046415zM195.046415 487.617843h48.764313v48.760701H195.046415zM195.046415 438.857143h48.764313v48.7607H195.046415z" p-id="8933"/><path fill="#E41C00" d="M195.046415 390.096442h48.764313v48.760701H195.046415zM195.046415 341.332129h48.764313v48.764313H195.046415z" p-id="8934"/><path fill="#900503" d="M195.046415 292.571429h48.764313v48.7607H195.046415z" p-id="8935"/><path fill="#BD0502" d="M195.046415 243.810728h48.764313V292.571429H195.046415z" p-id="8936"/><path fill="#BE0602" d="M195.046415 195.046415h48.764313v48.764313H195.046415z" p-id="8937"/><path fill="#E41C00" d="M195.046415 146.285714h48.764313v48.760701H195.046415z" p-id="8938"/><path d="M195.046415 97.525014h48.764313v48.7607H195.046415zM146.285714 682.664258h48.760701v48.764313H146.285714z" p-id="8939"/><path fill="#E41C00" d="M146.285714 633.903558h48.760701v48.7607H146.285714zM146.285714 585.142857h48.760701v48.760701H146.285714z" p-id="8940"/><path fill="#BD0502" d="M146.285714 536.378544h48.760701v48.764313H146.285714z" p-id="8941"/><path fill="#900503" d="M146.285714 487.617843h48.760701v48.760701H146.285714zM146.285714 438.857143h48.760701v48.7607H146.285714z" p-id="8942"/><path fill="#E41C00" d="M146.285714 390.096442h48.760701v48.760701H146.285714zM146.285714 341.332129h48.760701v48.764313H146.285714zM146.285714 292.571429h48.760701v48.7607H146.285714z" p-id="8943"/><path fill="#BD0502" d="M146.285714 243.810728h48.760701V292.571429H146.285714z" p-id="8944"/><path fill="#BE0602" d="M146.285714 195.046415h48.760701v48.764313H146.285714z" p-id="8945"/><path fill="#E41C00" d="M146.285714 146.285714h48.760701v48.760701H146.285714z" p-id="8946"/><path d="M146.285714 97.525014h48.760701v48.7607H146.285714zM97.525014 633.903558h48.7607v48.7607H97.525014zM97.525014 585.142857h48.7607v48.760701H97.525014z" p-id="8947"/><path fill="#E41C00" d="M97.525014 536.378544h48.7607v48.764313H97.525014zM97.525014 487.617843h48.7607v48.760701H97.525014z" p-id="8948"/><path fill="#900503" d="M97.525014 438.857143h48.7607v48.7607H97.525014zM97.525014 390.096442h48.7607v48.760701H97.525014z" p-id="8949"/><path fill="#E41C00" d="M97.525014 341.332129h48.7607v48.764313H97.525014zM97.525014 292.571429h48.7607v48.7607H97.525014zM97.525014 243.810728h48.7607V292.571429H97.525014zM97.525014 195.046415h48.7607v48.764313H97.525014z" p-id="8950"/><path d="M97.525014 146.285714h48.7607v48.760701H97.525014zM48.760701 536.378544h48.764313v48.764313H48.760701zM48.760701 487.617843h48.764313v48.760701H48.760701z" p-id="8951"/><path fill="#E41C00" d="M48.760701 438.857143h48.764313v48.7607H48.760701zM48.760701 390.096442h48.764313v48.760701H48.760701zM48.760701 341.332129h48.764313v48.764313H48.760701zM48.760701 292.571429h48.764313v48.7607H48.760701zM48.760701 243.810728h48.764313V292.571429H48.760701z" p-id="8952"/><path d="M48.760701 195.046415h48.764313v48.764313H48.760701zM0 438.857143h48.760701v48.7607H0zM0 390.096442h48.760701v48.760701H0zM0 341.332129h48.760701v48.764313H0zM0 292.571429h48.760701v48.7607H0zM0 243.810728h48.760701V292.571429H0z" p-id="8953"/></svg>